<svg width="169" height="23" viewBox="0 0 169 23" fill="none" xmlns="http://www.w3.org/2000/svg">
<path d="M33.112 16.192C36.264 16.192 38.408 13.824 38.408 10.672C38.408 7.52 36.264 5.152 33.112 5.152C29.944 5.152 27.816 7.52 27.816 10.672C27.816 13.824 29.944 16.192 33.112 16.192ZM33.112 15.008C30.712 15.008 29.192 13.152 29.192 10.672C29.192 8.176 30.712 6.336 33.112 6.336C35.496 6.336 37.032 8.176 37.032 10.672C37.032 13.152 35.496 15.008 33.112 15.008ZM40.2744 8.272V10.816C40.2744 12.576 41.1224 13.36 43.1384 13.36C44.0184 13.36 44.9144 13.136 45.4904 12.848V16H46.6904V8.272H45.4904V11.872C45.0264 12.112 44.2424 12.288 43.4424 12.288C42.1624 12.288 41.4744 11.888 41.4744 10.448V8.272H40.2744ZM50.2426 16L54.3226 9.984V16H55.5226V8.272H54.3386L50.2906 14.176V8.272H49.0906V16H50.2426ZM61.3268 16.192C62.7348 16.192 63.5668 15.616 64.1588 14.848L63.3588 14.112C62.8468 14.8 62.1908 15.12 61.3908 15.12C59.7428 15.12 58.7188 13.84 58.7188 12.128C58.7188 10.416 59.7428 9.152 61.3908 9.152C62.1908 9.152 62.8468 9.456 63.3588 10.16L64.1588 9.424C63.5668 8.656 62.7348 8.08 61.3268 8.08C59.0228 8.08 57.4708 9.84 57.4708 12.128C57.4708 14.432 59.0228 16.192 61.3268 16.192ZM68.4486 16V9.328H70.7046V8.272H65.0086V9.328H67.2486V16H68.4486ZM73.4301 16L77.5101 9.984V16H78.7101V8.272H77.5261L73.4781 14.176V8.272H72.2781V16H73.4301ZM83.7143 16V9.328H85.9703V8.272H80.2743V9.328H82.5143V16H83.7143ZM87.5438 8.272V16H91.6398C93.2238 16 94.0718 14.912 94.0718 13.632C94.0718 12.368 93.2398 11.264 91.6398 11.264H88.7438V8.272H87.5438ZM91.5118 12.32C92.3918 12.32 92.8398 12.88 92.8398 13.632C92.8398 14.4 92.3758 14.944 91.5118 14.944H88.7438V12.32H91.5118ZM106.828 16L103.388 11.776L106.812 8.272H105.292L101.228 12.384V8.272H100.028V16H101.228V13.792L102.508 12.528L105.292 16H106.828ZM111.576 16.192C113.928 16.192 115.4 14.368 115.4 12.128C115.4 9.888 113.928 8.08 111.576 8.08C109.224 8.08 107.752 9.888 107.752 12.128C107.752 14.368 109.224 16.192 111.576 16.192ZM111.576 15.12C109.928 15.12 109 13.712 109 12.128C109 10.56 109.928 9.152 111.576 9.152C113.224 9.152 114.136 10.56 114.136 12.128C114.136 13.712 113.224 15.12 111.576 15.12ZM121.164 16.192C123.196 16.192 124.604 14.624 124.604 12.128C124.604 9.616 123.196 8.08 121.164 8.08C120.076 8.08 119.116 8.64 118.556 9.424V8.272H117.356V18.944H118.556V14.832C119.18 15.696 120.108 16.192 121.164 16.192ZM120.86 15.12C119.916 15.12 118.972 14.544 118.556 13.872V10.384C118.972 9.712 119.916 9.152 120.86 9.152C122.412 9.152 123.34 10.416 123.34 12.128C123.34 13.84 122.412 15.12 120.86 15.12ZM129.249 16.192C131.473 16.192 132.785 15.232 132.785 13.936C132.785 12.656 131.441 12.112 130.545 12.048C131.457 11.936 132.625 11.312 132.625 10.16C132.625 8.848 131.153 8.08 129.073 8.096C127.664 8.096 126.625 8.592 125.905 9.328L126.529 10.064C127.185 9.392 128.033 9.072 129.121 9.072C130.401 9.072 131.377 9.568 131.377 10.304C131.377 11.184 130.369 11.6 129.089 11.6H127.361V12.576H129.089C130.449 12.576 131.521 12.896 131.521 13.856C131.521 14.672 130.625 15.2 129.249 15.2C128.097 15.2 127.073 14.848 126.353 14.16L125.761 14.928C126.529 15.696 127.697 16.192 129.249 16.192ZM135.883 16L139.963 9.984V16H141.163V8.272H139.979L135.931 14.176V8.272H134.731V16H135.883ZM144.759 16V12.544H148.791V16H149.991V8.272H148.791V11.488H144.759V8.272H143.559V16H144.759ZM151.956 19.024C152.18 19.088 152.58 19.136 152.836 19.136C153.86 19.12 154.644 18.688 155.108 17.568L158.98 8.272H157.668L155.108 14.608L152.532 8.272H151.236L154.468 16.08L153.956 17.248C153.684 17.888 153.332 18.064 152.804 18.064C152.612 18.064 152.324 18.016 152.148 17.936L151.956 19.024Z" fill="#B6B6B6"/>
<path d="M2.5 5H4.16667H17.5" stroke="#B6B6B6" stroke-width="1.2" stroke-linecap="round" stroke-linejoin="round"/>
<path d="M6.66663 5.00001V3.33334C6.66663 2.89131 6.84222 2.46739 7.15478 2.15483C7.46734 1.84227 7.89127 1.66667 8.33329 1.66667H11.6666C12.1087 1.66667 12.5326 1.84227 12.8451 2.15483C13.1577 2.46739 13.3333 2.89131 13.3333 3.33334V5.00001M15.8333 5.00001V16.6667C15.8333 17.1087 15.6577 17.5326 15.3451 17.8452C15.0326 18.1577 14.6087 18.3333 14.1666 18.3333H5.83329C5.39127 18.3333 4.96734 18.1577 4.65478 17.8452C4.34222 17.5326 4.16663 17.1087 4.16663 16.6667V5.00001H15.8333Z" stroke="#B6B6B6" stroke-width="1.2" stroke-linecap="round" stroke-linejoin="round"/>
<path d="M8.33337 9.16667V14.1667" stroke="#B6B6B6" stroke-width="1.2" stroke-linecap="round" stroke-linejoin="round"/>
<path d="M11.6666 9.16667V14.1667" stroke="#B6B6B6" stroke-width="1.2" stroke-linecap="round" stroke-linejoin="round"/>
</svg>
